<?xml version="1.0" encoding="UTF-8"?> <svg xmlns="http://www.w3.org/2000/svg" id="_ëîé_1" data-name="‘ëîé_1" viewBox="0 0 2001 2001"><defs><style>.cls-1,.cls-2{fill:none;stroke-miterlimit:10;}.cls-1{stroke:#fff;}.cls-2{stroke:#000;stroke-width:5px;}.cls-3{fill:#242833;fill-rule:evenodd;}</style></defs><rect class="cls-1" x="0.5" y="0.5" width="2000" height="2000"></rect><polyline class="cls-2" points="914.09 291.5 1086.91 525.04 914.09 749.24 1086.91 1006.14 914.09 1192.97 1086.91 1412.5"></polyline><path class="cls-3" d="M1033,1473.73a33,33,0,1,0-33,33A33,33,0,0,0,1033,1473.73Z" transform="translate(0.5 0.5)"></path><path class="cls-3" d="M1932,188.81H68a68.21,68.21,0,0,0-68,68V1479.91A68.23,68.23,0,0,0,68,1548H842.73l-25.4,222.22H510.28v41h979.44v-41h-307L1157.28,1548H1932a68.25,68.25,0,0,0,68-68.07V256.85A68.24,68.24,0,0,0,1932,188.81ZM1000,234a12,12,0,1,1-12.06,12.06A12,12,0,0,1,1000,234Zm51.33,1335.35c0,28.76-23,47.12-51.33,47.12s-51.31-18.36-51.31-47.12l-1.2-21.39h105Zm-88.8-95.64a37.46,37.46,0,1,1,37.5,37.46A37.46,37.46,0,0,1,962.53,1473.73Zm965.73-61.84H71.9V289.41H1928.26Z" transform="translate(0.5 0.5)"></path></svg> 