<?xml version="1.0" encoding="UTF-8"?> <svg xmlns="http://www.w3.org/2000/svg" id="_ëîé_1" data-name="‘ëîé_1" viewBox="0 0 2012 2001"><defs><style>.cls-1{fill:none;stroke:#fff;stroke-miterlimit:10;}.cls-2,.cls-3{fill:#1b1c1e;}.cls-3{fill-rule:evenodd;}</style></defs><rect class="cls-1" x="6" y="0.5" width="2000" height="2000"></rect><path d="M1091.1,1016.11a10.2,10.2,0,0,0-9.25-5.87h-48.07l37.5-140.62a10.23,10.23,0,0,0-17.78-9.15l-143.26,174a10.24,10.24,0,0,0,7.9,16.74h48.07l-37.5,140.62a10.23,10.23,0,0,0,17.78,9.15l143.27-174A10.22,10.22,0,0,0,1091.1,1016.11ZM960.61,1151.6l28.81-108a10.23,10.23,0,0,0-9.89-12.87H939.82l99.57-120.9-28.81,108a10.23,10.23,0,0,0,9.89,12.87h39.71Z" transform="translate(6 0.5)"></path><path d="M1061.4,693H938.6a10.23,10.23,0,0,0-10.23,10.23v40.93A10.23,10.23,0,0,0,938.6,754.4h122.8a10.23,10.23,0,0,0,10.23-10.23V703.24A10.23,10.23,0,0,0,1061.4,693Zm-10.23,40.93H948.84V713.47h102.33Z" transform="translate(6 0.5)"></path><path d="M1114.29,733.94H885.71a39.25,39.25,0,0,0-39.21,39.2v494.65a39.26,39.26,0,0,0,39.21,39.2h228.58a39.25,39.25,0,0,0,39.21-39.2V773.14A39.25,39.25,0,0,0,1114.29,733.94ZM1133,1267.79a18.75,18.75,0,0,1-18.74,18.74H885.7A18.75,18.75,0,0,1,867,1267.79V773.14a18.76,18.76,0,0,1,18.74-18.73h228.58A18.75,18.75,0,0,1,1133,773.14Z" transform="translate(6 0.5)"></path><path class="cls-2" d="M1712.17,1555.56c-5.57,0-10.12,2.77-10.12,6.21v-.21h20.21v.21C1722.26,1558.33,1717.73,1555.56,1712.17,1555.56Z" transform="translate(6 0.5)"></path><path class="cls-2" d="M287.88,1555.56c-5.56,0-10.1,2.77-10.1,6.21v-.21H298v.21C298,1558.33,293.43,1555.56,287.88,1555.56Z" transform="translate(6 0.5)"></path><path class="cls-3" d="M1769.51,486.61a52.51,52.51,0,0,0-52.36-52.37H282.84a52.49,52.49,0,0,0-52.36,52.37V1496.29h1539Zm-60.82,943.54H288.18V506.76H1708.69Z" transform="translate(6 0.5)"></path><path class="cls-3" d="M2003.62,1530.22H-3.61c-1.55-1.1-2.36-2.23-2.36-3.34,0,17,149.54,38.88,241.4,38.88H1764.57c91.88,0,241.41-21.91,241.41-38.88C2006,1528,2005.16,1529.12,2003.62,1530.22Z" transform="translate(6 0.5)"></path><path class="cls-3" d="M1161.69,1504.1v4.25a11.88,11.88,0,0,1-11.87,11.87H850.17a11.88,11.88,0,0,1-11.86-11.87v-4.25H-6v22.78H2006V1504.1Z" transform="translate(6 0.5)"></path></svg> 