<?xml version="1.0" encoding="UTF-8"?> <svg xmlns="http://www.w3.org/2000/svg" viewBox="0 0 2012 1131.52"><defs><style>.cls-1,.cls-2{fill:#1b1c1e;}.cls-2{fill-rule:evenodd;}</style></defs><g id="Layer_2" data-name="Layer 2"><g id="_ëîé_1" data-name=" ëîé 1"><path class="cls-1" d="M1718.17,1121.32c-5.57,0-10.12,2.77-10.12,6.21v-.21h20.21v.21C1728.26,1124.09,1723.73,1121.32,1718.17,1121.32Z"></path><path class="cls-1" d="M293.88,1121.32c-5.56,0-10.1,2.77-10.1,6.21v-.21H304v.21C304,1124.09,299.43,1121.32,293.88,1121.32Z"></path><path class="cls-2" d="M1775.51,52.37A52.51,52.51,0,0,0,1723.15,0H288.84a52.49,52.49,0,0,0-52.36,52.37V1062.05h1539Zm-60.82,943.54H294.18V72.52H1714.69Z"></path><path class="cls-2" d="M2009.62,1096H2.39c-1.55-1.1-2.36-2.23-2.36-3.34,0,17,149.54,38.88,241.4,38.88H1770.57c91.88,0,241.41-21.91,241.41-38.88C2012,1093.76,2011.16,1094.88,2009.62,1096Z"></path><path class="cls-2" d="M1167.69,1069.86v4.25a11.89,11.89,0,0,1-11.87,11.87H856.17a11.88,11.88,0,0,1-11.86-11.87v-4.25H0v22.78H2012v-22.78Z"></path></g></g></svg> 