<?xml version="1.0" encoding="UTF-8"?> <svg xmlns="http://www.w3.org/2000/svg" viewBox="0 0 2000 1622.41"><defs><style>.cls-1{fill:#242833;fill-rule:evenodd;}</style></defs><g id="Layer_2" data-name="Layer 2"><g id="_ëîé_1" data-name=" ëîé 1"><path class="cls-1" d="M1033,1284.92a33,33,0,1,0-33,33h0A33,33,0,0,0,1033,1284.92Z"></path><path class="cls-1" d="M1932,0H68A68.21,68.21,0,0,0,0,68V1291.1a68.23,68.23,0,0,0,68,68.09H842.73l-25.4,222.22H510.28v41h979.44v-41h-307l-25.44-222.22H1932a68.25,68.25,0,0,0,68-68.07V68A68.23,68.23,0,0,0,1932,0ZM1000,45.19a12,12,0,1,1-.12,0Zm51.33,1335.35c0,28.76-23,47.12-51.33,47.12s-51.31-18.36-51.31-47.12l-1.2-21.39h105Zm-88.8-95.64a37.46,37.46,0,1,1,37.5,37.46,37.46,37.46,0,0,1-37.5-37.46v0Zm965.73-61.84H71.9V100.6H1928.26Z"></path></g></g></svg> 