<?xml version="1.0" encoding="UTF-8"?> <svg xmlns="http://www.w3.org/2000/svg" id="_ëîé_1" data-name="‘ëîé_1" viewBox="0 0 2001 2001"><defs><style>.cls-1{fill:none;stroke:#fff;stroke-miterlimit:10;}.cls-2{fill:#242833;}</style></defs><rect class="cls-1" x="0.5" y="0.5" width="2000" height="2000"></rect><path d="M934.94,1213.56a136,136,0,0,1-69-210.46,10.75,10.75,0,0,0,1.05-1.71,11.6,11.6,0,0,0-19.83-11.9,159.16,159.16,0,0,0,.71,189.47,160.48,160.48,0,0,0,80.19,56.75,11.84,11.84,0,0,0,3.45.52,11.6,11.6,0,0,0,3.44-22.67Z" transform="translate(0.5 0.5)"></path><path d="M1232.21,974.88a102.12,102.12,0,0,0-19.9-60.85l-73.41-109a11.59,11.59,0,0,0-19.23,0L1088.73,851,993.08,709a11.59,11.59,0,0,0-19.23,0L809.66,952.72a214,214,0,0,0-41.87,127.73c0,118.92,96.75,215.68,215.68,215.68s215.67-96.76,215.67-215.68a218.13,218.13,0,0,0-1.86-28.37A102.72,102.72,0,0,0,1232.21,974.88ZM1129.28,832.29l63.79,94.7.41.58a79.74,79.74,0,1,1-128.39,0c.14-.19.27-.37.39-.56l32.85-48.76.18-.27ZM1176,1080.45c0,106.13-86.35,192.48-192.49,192.48S791,1186.58,791,1080.45a191,191,0,0,1,37.53-114.21c.14-.19.28-.39.41-.59L983.47,736.23l91.28,135.5-28.5,42.3a102.92,102.92,0,0,0,129.21,152.82q.48,6.78.49,13.6Z" transform="translate(0.5 0.5)"></path><path d="M1088.39,972.05a39.55,39.55,0,0,1,3.4-16.12,11.59,11.59,0,1,0-21.19-9.42,63,63,0,0,0,22.57,77.87,11.6,11.6,0,1,0,12.9-19.28,39.7,39.7,0,0,1-17.68-33.05Z" transform="translate(0.5 0.5)"></path><path d="M978,1229.62c-2.84-7.46-13.44-9.59-18.92-3.75-6.53,6.32-3,17.94,5.94,19.56C973.86,1247.38,981.6,1238,978,1229.62Z" transform="translate(0.5 0.5)"></path><path d="M1123.17,1035c7.48,5.18,18.19-.55,18-9.64.17-9.09-10.56-14.83-18-9.65C1116.4,1019.91,1116.38,1030.72,1123.17,1035Z" transform="translate(0.5 0.5)"></path><path class="cls-2" d="M997.38,1871.1a90.44,90.44,0,0,0-14-1.16,87.31,87.31,0,0,0-13.94,1.16c-1.88.34-4.51,3-4.83,4.71a87.16,87.16,0,0,0,0,28c.32,1.86,2.95,4.49,4.7,4.79a85.52,85.52,0,0,0,14.07,1.16,83.76,83.76,0,0,0,14-1.16c1.83-.3,4.49-2.93,4.76-4.7a85.36,85.36,0,0,0,0-28C1001.79,1874.07,999.11,1871.44,997.38,1871.1Z" transform="translate(0.5 0.5)"></path><path class="cls-2" d="M1619.22,21.24H383.34c-73.77,0-134.13,60.38-134.13,134.15V370.86h-.59a2,2,0,0,0-2,2.19v87.08a2,2,0,0,0,2,2.19h.59v145a3.85,3.85,0,0,0-2.56,3.65V776.16a4,4,0,0,0,2.56,3.71v77a3.87,3.87,0,0,0-2.56,3.68v165.17a3.83,3.83,0,0,0,2.56,3.66v815.25c0,73.8,60.36,134.12,134.13,134.12H1619.22c73.76,0,134.13-60.32,134.13-134.12V155.39C1753.35,81.62,1693,21.24,1619.22,21.24Zm44.17,1794.48H339.19V184.35h1324.2Z" transform="translate(0.5 0.5)"></path></svg> 