<?xml version="1.0" encoding="UTF-8"?> <svg xmlns="http://www.w3.org/2000/svg" id="_ëîé_1" data-name="‘ëîé_1" viewBox="0 0 2001 2001"><defs><style>.cls-1{fill:none;stroke:#fff;stroke-miterlimit:10;}.cls-2{fill:#242833;}</style></defs><rect class="cls-1" x="0.5" y="0.5" width="2000" height="2000"></rect><path d="M924.67,1293.51a20.92,20.92,0,0,1-14-5.36l-69.88-62.9a20.94,20.94,0,0,1-.79-30.41L895,1139.78,840,1084.71a21,21,0,0,1,0-29.66L895,1000,840,945a21,21,0,0,1,0-29.66L895,860.23l-55.07-55a20.92,20.92,0,0,1-6.15-15.37,21.16,21.16,0,0,1,6.94-15l69.88-62.89a21,21,0,0,1,28.06,31.19l-53.47,48.11,54.25,54.25a21,21,0,0,1,0,29.66l-55,55,55.07,55.06a21,21,0,0,1,0,29.66l-55.07,55L939.51,1125a21,21,0,0,1,0,29.66l-54.26,54.25L938.73,1257a20.94,20.94,0,0,1-14.06,36.53Z" transform="translate(0.5 0.5)"></path><path d="M1075.33,1293.51a21,21,0,0,1-14-36.56l53.47-48.1-54.25-54.26a21,21,0,0,1,0-29.66l55.06-55.06-55.06-55.07a21,21,0,0,1,0-29.65l55-55-55.07-55.07a21,21,0,0,1,0-29.66l54.26-54.25-53.48-48.11a21,21,0,0,1,28.07-31.19l69.88,62.89a21.23,21.23,0,0,1,7,15.07,21,21,0,0,1-6.15,15.37L1105,860.26,1160,915.32a21,21,0,0,1,0,29.66L1105,1000l55.07,55.07a21,21,0,0,1,0,29.66L1105,1139.83,1160,1194.9a20.94,20.94,0,0,1-.79,30.41l-69.88,62.89A21.12,21.12,0,0,1,1075.33,1293.51Z" transform="translate(0.5 0.5)"></path><path class="cls-2" d="M997.38,1871.1a90.44,90.44,0,0,0-14-1.16,87.31,87.31,0,0,0-13.94,1.16c-1.88.34-4.51,3-4.83,4.71a87.16,87.16,0,0,0,0,28c.32,1.86,2.95,4.49,4.7,4.79a85.52,85.52,0,0,0,14.07,1.16,83.76,83.76,0,0,0,14-1.16c1.83-.3,4.49-2.93,4.76-4.7a85.36,85.36,0,0,0,0-28C1001.79,1874.07,999.11,1871.44,997.38,1871.1Z" transform="translate(0.5 0.5)"></path><path class="cls-2" d="M1619.22,21.24H383.34c-73.77,0-134.13,60.38-134.13,134.15V370.86h-.59a2,2,0,0,0-2,2.19v87.08a2,2,0,0,0,2,2.19h.59v145a3.85,3.85,0,0,0-2.56,3.65V776.16a4,4,0,0,0,2.56,3.71v77a3.87,3.87,0,0,0-2.56,3.68v165.17a3.83,3.83,0,0,0,2.56,3.66v815.25c0,73.8,60.36,134.12,134.13,134.12H1619.22c73.76,0,134.13-60.32,134.13-134.12V155.39C1753.35,81.62,1693,21.24,1619.22,21.24Zm44.17,1794.48H339.19V184.35h1324.2Z" transform="translate(0.5 0.5)"></path></svg> 