<?xml version="1.0" encoding="UTF-8"?> <svg xmlns="http://www.w3.org/2000/svg" id="_ëîé_1" data-name="‘ëîé_1" viewBox="0 0 2001 2001"><defs><style>.cls-1{fill:none;stroke:#fff;stroke-miterlimit:10;}.cls-2{fill:#242833;}</style></defs><rect class="cls-1" x="0.5" y="0.5" width="2000" height="2000"></rect><path d="M1148.25,703.49H925.87a12.43,12.43,0,0,0-8.74,3.61L793.58,830.64a12.47,12.47,0,0,0-3.61,8.75v395.34a61.88,61.88,0,0,0,61.78,61.78h296.5a61.87,61.87,0,0,0,61.78-61.77V765.26A61.87,61.87,0,0,0,1148.25,703.49Zm37.07,531.25a37.11,37.11,0,0,1-37.07,37.06H851.75a37.11,37.11,0,0,1-37.07-37.06V844.51L931,728.2h217.26a37.11,37.11,0,0,1,37.07,37.06Z" transform="translate(0.5 0.5)"></path><path d="M1098.84,901.16H901.17a37.11,37.11,0,0,0-37.07,37.07v247.09a37.11,37.11,0,0,0,37.07,37.06h197.67a37.11,37.11,0,0,0,37.06-37.06V938.23A37.11,37.11,0,0,0,1098.84,901.16Zm12.35,284.16a12.35,12.35,0,0,1-12.35,12.35H901.17a12.36,12.36,0,0,1-12.36-12.35V938.23a12.37,12.37,0,0,1,12.36-12.36h197.67a12.36,12.36,0,0,1,12.35,12.36v247.09Z" transform="translate(0.5 0.5)"></path><path d="M1123.55,1049.42H876.46a12.36,12.36,0,1,0,0,24.71h247.08a12.36,12.36,0,1,0,0-24.71Z" transform="translate(0.5 0.5)"></path><path d="M950.58,901.16a12.36,12.36,0,0,0-12.35,12.36v74.13a12.36,12.36,0,0,0,24.71,0V913.52A12.37,12.37,0,0,0,950.58,901.16Z" transform="translate(0.5 0.5)"></path><path d="M1000,975.29a12.36,12.36,0,0,0-12.35,12.36v74.12a12.36,12.36,0,1,0,24.71,0V987.65A12.37,12.37,0,0,0,1000,975.29Z" transform="translate(0.5 0.5)"></path><path d="M1049.42,901.16a12.37,12.37,0,0,0-12.36,12.36v74.13a12.36,12.36,0,0,0,24.71,0V913.52A12.36,12.36,0,0,0,1049.42,901.16Z" transform="translate(0.5 0.5)"></path><path d="M1000,1123.54a12.36,12.36,0,0,0-12.35,12.36V1210a12.36,12.36,0,0,0,24.71,0V1135.9A12.37,12.37,0,0,0,1000,1123.54Z" transform="translate(0.5 0.5)"></path><path d="M950.58,1049.42a12.35,12.35,0,0,0-12.35,12.35v74.13a12.36,12.36,0,0,0,24.71,0v-74.13A12.36,12.36,0,0,0,950.58,1049.42Z" transform="translate(0.5 0.5)"></path><path d="M1049.42,1049.42a12.36,12.36,0,0,0-12.36,12.35v74.13a12.36,12.36,0,0,0,24.71,0v-74.13A12.35,12.35,0,0,0,1049.42,1049.42Z" transform="translate(0.5 0.5)"></path><path class="cls-2" d="M997.38,1871.1a90.44,90.44,0,0,0-14-1.16,87.31,87.31,0,0,0-13.94,1.16c-1.88.34-4.51,3-4.83,4.71a87.16,87.16,0,0,0,0,28c.32,1.86,2.95,4.49,4.7,4.79a85.52,85.52,0,0,0,14.07,1.16,83.76,83.76,0,0,0,14-1.16c1.83-.3,4.49-2.93,4.76-4.7a85.36,85.36,0,0,0,0-28C1001.79,1874.07,999.11,1871.44,997.38,1871.1Z" transform="translate(0.5 0.5)"></path><path class="cls-2" d="M1619.22,21.24H383.34c-73.77,0-134.13,60.38-134.13,134.15V370.86h-.59a2,2,0,0,0-2,2.19v87.08a2,2,0,0,0,2,2.19h.59v145a3.85,3.85,0,0,0-2.56,3.65V776.16a4,4,0,0,0,2.56,3.71v77a3.87,3.87,0,0,0-2.56,3.68v165.17a3.83,3.83,0,0,0,2.56,3.66v815.25c0,73.8,60.36,134.12,134.13,134.12H1619.22c73.76,0,134.13-60.32,134.13-134.12V155.39C1753.35,81.62,1693,21.24,1619.22,21.24Zm44.17,1794.48H339.19V184.35h1324.2Z" transform="translate(0.5 0.5)"></path></svg> 