<?xml version="1.0" encoding="UTF-8"?> <svg xmlns="http://www.w3.org/2000/svg" id="_ëîé_1" data-name="‘ëîé_1" viewBox="0 0 2001 2001"><defs><style>.cls-1{fill:none;stroke:#fff;stroke-miterlimit:10;}.cls-2{fill:#242833;}</style></defs><rect class="cls-1" x="0.5" y="0.5" width="2000" height="2000"></rect><path d="M1234.05,803.91l-38-38a8.93,8.93,0,0,0-12.65,0L1056.94,892.47a8.93,8.93,0,0,0,0,12.64l38,38a8.94,8.94,0,0,0,12.65,0l126.51-126.53a8.92,8.92,0,0,0,0-12.63ZM1101.22,924.1l-25.31-25.31,113.86-113.88,25.31,25.31Z" transform="translate(0.5 0.5)"></path><path d="M1265.69,734.31a9,9,0,0,0-8.08-2.44L1226,738.2a8.81,8.81,0,0,0-4.57,2.44l-31.63,31.63a8.94,8.94,0,0,0,0,12.65l25.3,25.3a8.94,8.94,0,0,0,12.65,0l31.63-31.62a9,9,0,0,0,2.44-4.58l6.33-31.63A8.91,8.91,0,0,0,1265.69,734.31Zm-20.9,33.55-23.38,23.39-12.66-12.65,23.39-23.4L1248,752Z" transform="translate(0.5 0.5)"></path><path d="M1120.19,943.07l-63.25-63.26a9.22,9.22,0,0,0-12.65,0l-38,38a8.94,8.94,0,0,0,0,12.64l63.26,63.26a8.94,8.94,0,0,0,12.65,0l38-38A8.92,8.92,0,0,0,1120.19,943.07Zm-44.28,31.63-50.61-50.61,25.31-25.31,50.61,50.61Z" transform="translate(0.5 0.5)"></path><path d="M1094.88,993.68l-88.55-88.56a8.93,8.93,0,0,0-12.65,0L753.29,1145.5a9,9,0,0,0,0,12.65l88.56,88.56a8.94,8.94,0,0,0,12.65,0l240.38-240.38A8.93,8.93,0,0,0,1094.88,993.68Zm-246.7,234.06-75.92-75.91L1000,924.09l75.91,75.91Z" transform="translate(0.5 0.5)"></path><path d="M881.11,1080.92a9,9,0,0,0-12.65,0l-64.58,64.58a8.94,8.94,0,0,0,0,12.65l18.11,18.1a8.94,8.94,0,0,0,12.64-12.64l-11.78-11.78,58.26-58.26A9,9,0,0,0,881.11,1080.92Z" transform="translate(0.5 0.5)"></path><path d="M822.87,1202.43l-25.31-25.3a8.92,8.92,0,0,0-12.64,0l-50.6,50.61a8.94,8.94,0,0,0,0,12.65l25.3,25.3a8.93,8.93,0,0,0,12.64,0l50.61-50.61a8.94,8.94,0,0,0,0-12.65Zm-56.93,44.29-12.65-12.66,38-38,12.66,12.65Z" transform="translate(0.5 0.5)"></path><path d="M1145.49,803.91l-50.6,50.6,50.6,50.6,50.61-50.6Zm-25.3,50.6,25.31-25.31,25.31,25.31-25.31,25.31Z" transform="translate(0.5 0.5)"></path><path class="cls-2" d="M997.38,1871.1a90.44,90.44,0,0,0-14-1.16,87.31,87.31,0,0,0-13.94,1.16c-1.88.34-4.51,3-4.83,4.71a87.16,87.16,0,0,0,0,28c.32,1.86,2.95,4.49,4.7,4.79a85.52,85.52,0,0,0,14.07,1.16,83.76,83.76,0,0,0,14-1.16c1.83-.3,4.49-2.93,4.76-4.7a85.36,85.36,0,0,0,0-28C1001.79,1874.07,999.11,1871.44,997.38,1871.1Z" transform="translate(0.5 0.5)"></path><path class="cls-2" d="M1619.22,21.24H383.34c-73.77,0-134.13,60.38-134.13,134.15V370.86h-.59a2,2,0,0,0-2,2.19v87.08a2,2,0,0,0,2,2.19h.59v145a3.85,3.85,0,0,0-2.56,3.65V776.16a4,4,0,0,0,2.56,3.71v77a3.87,3.87,0,0,0-2.56,3.68v165.17a3.83,3.83,0,0,0,2.56,3.66v815.25c0,73.8,60.36,134.12,134.13,134.12H1619.22c73.76,0,134.13-60.32,134.13-134.12V155.39C1753.35,81.62,1693,21.24,1619.22,21.24Zm44.17,1794.48H339.19V184.35h1324.2Z" transform="translate(0.5 0.5)"></path></svg> 