<?xml version="1.0" encoding="UTF-8"?> <svg xmlns="http://www.w3.org/2000/svg" id="_ëîé_1" data-name="‘ëîé_1" viewBox="0 0 2001 2001"><defs><style>.cls-1{fill:none;stroke:#fff;stroke-miterlimit:10;}.cls-2{fill:#242833;}</style></defs><rect class="cls-1" x="0.5" y="0.5" width="2000" height="2000"></rect><path d="M1182.16,1113.31a8.14,8.14,0,0,0,8.14-8.13V820.73a8.1,8.1,0,0,0-2.39-5.75l-89.63-89.64a8.17,8.17,0,0,0-5.75-2.38h-240a42.88,42.88,0,0,0-42.83,42.83v468.42A42.88,42.88,0,0,0,852.53,1277h294.93a42.87,42.87,0,0,0,42.83-42.83v-96.5a8.13,8.13,0,1,0-16.26,0v96.5a26.6,26.6,0,0,1-26.57,26.57H852.53A26.6,26.6,0,0,1,826,1234.21V765.79a26.6,26.6,0,0,1,26.56-26.57h236.63L1174,824.1v281.08A8.13,8.13,0,0,0,1182.16,1113.31Z" transform="translate(0.5 0.5)"></path><path d="M1104.09,896.45H895.91a25.52,25.52,0,0,0-25.49,25.48v277.58A25.52,25.52,0,0,0,895.91,1225h208.18a25.51,25.51,0,0,0,25.48-25.48V921.93A25.51,25.51,0,0,0,1104.09,896.45Zm-217.4,25.48a9.23,9.23,0,0,1,9.22-9.22h52.58v87.83h-61.8Zm0,94.88h61.8v87.83h-61.8Zm9.22,191.92a9.22,9.22,0,0,1-9.22-9.22V1120.9h61.8v87.29c0,.18,0,.36,0,.54Zm139.33,0H964.73c0-.18,0-.36,0-.54V912.71h70.48v296Zm78.07-9.22a9.23,9.23,0,0,1-9.22,9.22H1051.5V1120.9h61.81Zm0-94.87H1051.5v-87.83h61.81Zm0-104.1H1051.5V912.71h52.59a9.24,9.24,0,0,1,9.22,9.22Z" transform="translate(0.5 0.5)"></path><path d="M895.91,766.33h-34.7a8.13,8.13,0,0,0-8.13,8.13v69.4a8.13,8.13,0,0,0,8.13,8.13h34.7a8.13,8.13,0,0,0,8.13-8.13v-69.4A8.13,8.13,0,0,0,895.91,766.33Zm-8.14,69.4H869.34V782.6h18.43Z" transform="translate(0.5 0.5)"></path><path d="M974,766.33h-34.7a8.13,8.13,0,0,0-8.13,8.13v69.4a8.13,8.13,0,0,0,8.13,8.13H974a8.13,8.13,0,0,0,8.13-8.13v-69.4A8.13,8.13,0,0,0,974,766.33Zm-8.14,69.4H947.41V782.6h18.43Z" transform="translate(0.5 0.5)"></path><path d="M1052.05,766.33h-34.7a8.13,8.13,0,0,0-8.13,8.13v69.4a8.13,8.13,0,0,0,8.13,8.13h34.7a8.13,8.13,0,0,0,8.13-8.13v-69.4A8.13,8.13,0,0,0,1052.05,766.33Zm-8.14,69.4h-18.43V782.6h18.43Z" transform="translate(0.5 0.5)"></path><path class="cls-2" d="M997.38,1871.1a90.44,90.44,0,0,0-14-1.16,87.31,87.31,0,0,0-13.94,1.16c-1.88.34-4.51,3-4.83,4.71a87.16,87.16,0,0,0,0,28c.32,1.86,2.95,4.49,4.7,4.79a85.52,85.52,0,0,0,14.07,1.16,83.76,83.76,0,0,0,14-1.16c1.83-.3,4.49-2.93,4.76-4.7a85.36,85.36,0,0,0,0-28C1001.79,1874.07,999.11,1871.44,997.38,1871.1Z" transform="translate(0.5 0.5)"></path><path class="cls-2" d="M1619.22,21.24H383.34c-73.77,0-134.13,60.38-134.13,134.15V370.86h-.59a2,2,0,0,0-2,2.19v87.08a2,2,0,0,0,2,2.19h.59v145a3.85,3.85,0,0,0-2.56,3.65V776.16a4,4,0,0,0,2.56,3.71v77a3.87,3.87,0,0,0-2.56,3.68v165.17a3.83,3.83,0,0,0,2.56,3.66v815.25c0,73.8,60.36,134.12,134.13,134.12H1619.22c73.76,0,134.13-60.32,134.13-134.12V155.39C1753.35,81.62,1693,21.24,1619.22,21.24Zm44.17,1794.48H339.19V184.35h1324.2Z" transform="translate(0.5 0.5)"></path></svg> 