<?xml version="1.0" encoding="UTF-8"?> <svg xmlns="http://www.w3.org/2000/svg" id="_ëîé_1" data-name="‘ëîé_1" viewBox="0 0 2001 2001"><defs><style>.cls-1{fill:none;stroke:#fff;stroke-miterlimit:10;}.cls-2{fill:#242833;}</style></defs><rect class="cls-1" x="0.5" y="0.5" width="2000" height="2000"></rect><g id="Page-1"><g id="_022---SSD" data-name="022---SSD"><path id="Shape" d="M1173.15,1321.676H826.85a38.521,38.521,0,0,1-38.477-38.478V782.989a38.521,38.521,0,0,1,38.477-38.478h346.3a38.521,38.521,0,0,1,38.477,38.478V1283.2A38.521,38.521,0,0,1,1173.15,1321.676ZM826.85,763.75a19.257,19.257,0,0,0-19.238,19.239V1283.2a19.257,19.257,0,0,0,19.238,19.239h346.3a19.257,19.257,0,0,0,19.238-19.239V782.989a19.257,19.257,0,0,0-19.238-19.239Z" transform="translate(0.5 0.5)"></path><path id="Shape-2" data-name="Shape" d="M1067.336,821.466H894.186a19.257,19.257,0,0,1-19.238-19.239v-48.1a9.619,9.619,0,0,1,9.619-9.619h192.388a9.62,9.62,0,0,1,9.62,9.619v48.1A19.258,19.258,0,0,1,1067.336,821.466ZM894.186,763.75v38.477h173.15V763.75Z" transform="translate(0.5 0.5)"></path><circle id="Oval" cx="836.97" cy="793.108" r="9.619"></circle><circle id="Oval-2" data-name="Oval" cx="1164.03" cy="793.108" r="9.619"></circle><circle id="Oval-3" data-name="Oval" cx="836.97" cy="1274.079" r="9.619"></circle><circle id="Oval-4" data-name="Oval" cx="1164.03" cy="1274.079" r="9.619"></circle><path id="Shape-3" data-name="Shape" d="M1009.619,821.466a9.62,9.62,0,0,1-9.619-9.619V754.13a9.62,9.62,0,0,1,19.239,0v57.717A9.62,9.62,0,0,1,1009.619,821.466Z" transform="translate(0.5 0.5)"></path><path id="Shape-4" data-name="Shape" d="M1125.052,1254.34h-250.1a48.155,48.155,0,0,1-48.1-48.1V936.9a48.155,48.155,0,0,1,48.1-48.1h250.1a48.155,48.155,0,0,1,48.1,48.1v269.344A48.155,48.155,0,0,1,1125.052,1254.34Zm-250.1-346.3A28.891,28.891,0,0,0,846.089,936.9v269.344a28.89,28.89,0,0,0,28.859,28.858h250.1a28.89,28.89,0,0,0,28.859-28.858V936.9a28.891,28.891,0,0,0-28.859-28.858Z" transform="translate(0.5 0.5)"></path><path id="Shape-5" data-name="Shape" d="M903.806,1081.191a38.46,38.46,0,0,1-27.2-65.673,39.343,39.343,0,0,1,54.39,0,38.212,38.212,0,0,1,11.282,27.195,9.619,9.619,0,0,1-19.238,0,19.109,19.109,0,0,0-5.646-13.593,19.65,19.65,0,0,0-27.186,0,19.223,19.223,0,0,0,13.593,32.832,9.62,9.62,0,0,1,0,19.239Z" transform="translate(0.5 0.5)"></path><path id="Shape-6" data-name="Shape" d="M903.806,1138.907a38.521,38.521,0,0,1-38.478-38.478,9.62,9.62,0,0,1,19.239,0,19.224,19.224,0,1,0,19.239-19.238,9.62,9.62,0,1,1,0-19.239,38.478,38.478,0,0,1,0,76.955Z" transform="translate(0.5 0.5)"></path><path id="Shape-7" data-name="Shape" d="M1000,1081.191a38.46,38.46,0,0,1-27.2-65.673,39.343,39.343,0,0,1,54.39,0,38.213,38.213,0,0,1,11.283,27.195,9.62,9.62,0,0,1-19.239,0,19.1,19.1,0,0,0-5.646-13.593,19.65,19.65,0,0,0-27.186,0A19.223,19.223,0,0,0,1000,1061.952a9.62,9.62,0,0,1,0,19.239Z" transform="translate(0.5 0.5)"></path><path id="Shape-8" data-name="Shape" d="M1000,1138.907a38.521,38.521,0,0,1-38.478-38.478,9.62,9.62,0,0,1,19.239,0A19.224,19.224,0,1,0,1000,1081.191a9.62,9.62,0,0,1,0-19.239,38.478,38.478,0,1,1,0,76.955Z" transform="translate(0.5 0.5)"></path><path id="Shape-9" data-name="Shape" d="M1096.194,1138.907h-28.858a9.619,9.619,0,0,1-9.619-9.619V1013.855a9.619,9.619,0,0,1,9.619-9.62h28.858a38.521,38.521,0,0,1,38.478,38.478v57.716A38.521,38.521,0,0,1,1096.194,1138.907Zm-19.239-19.239h19.239a19.258,19.258,0,0,0,19.239-19.239v-57.716a19.259,19.259,0,0,0-19.239-19.239h-19.239Z" transform="translate(0.5 0.5)"></path></g></g><path class="cls-2" d="M1619.24,21.245H383.36c-73.77,0-134.13,60.38-134.13,134.15v215.47h-.59a2,2,0,0,0-2.009,1.991,1.657,1.657,0,0,0,.009.2v87.08a2,2,0,0,0,1.8,2.181c.066.006.132.009.2.009h.59v145a3.85,3.85,0,0,0-2.56,3.65v165.19a4,4,0,0,0,2.56,3.71v77a3.868,3.868,0,0,0-2.56,3.68v165.17a3.83,3.83,0,0,0,2.56,3.66v815.25c0,73.8,60.36,134.12,134.13,134.12H1619.24c73.76,0,134.13-60.32,134.13-134.12V155.4C1753.37,81.625,1693.02,21.245,1619.24,21.245Zm44.17,1794.48H339.21V184.355h1324.2Z" transform="translate(0.5 0.5)"></path></svg> 