<?xml version="1.0" encoding="UTF-8"?> <svg xmlns="http://www.w3.org/2000/svg" id="_ëîé_1" data-name="‘ëîé_1" viewBox="0 0 2001 2001"><defs><style>.cls-1{fill:none;stroke:#fff;stroke-miterlimit:10;}.cls-2{fill:#242833;}</style></defs><rect class="cls-1" x="0.5" y="0.5" width="2000" height="2000"></rect><path d="M1300.07,686.29a13.64,13.64,0,0,0-13.64-13.64H713.57a13.64,13.64,0,0,0-13.64,13.64v627.42a13.64,13.64,0,0,0,13.64,13.64h572.86a13.64,13.64,0,0,0,13.64-13.64Zm-27.28,531.94v81.84H992l99.47-99.47a13.64,13.64,0,0,0-19.29-19.29L953.43,1300.07H910.17l181.31-181.31a13.64,13.64,0,0,0-19.29-19.29L871.6,1300.07H727.21V699.93h403.54l-99.47,99.47a13.64,13.64,0,1,0,19,19.62l.33-.33,118.76-118.76h43.27L1031.28,881.24a13.64,13.64,0,1,0,19,19.62l.33-.33,200.6-200.6h21.63Z" transform="translate(0.5 0.5)"></path><path class="cls-2" d="M997.38,1871.1a90.44,90.44,0,0,0-14-1.16,87.31,87.31,0,0,0-13.94,1.16c-1.88.34-4.51,3-4.83,4.71a87.16,87.16,0,0,0,0,28c.32,1.86,2.95,4.49,4.7,4.79a85.52,85.52,0,0,0,14.07,1.16,83.76,83.76,0,0,0,14-1.16c1.83-.3,4.49-2.93,4.76-4.7a85.36,85.36,0,0,0,0-28C1001.79,1874.07,999.11,1871.44,997.38,1871.1Z" transform="translate(0.5 0.5)"></path><path class="cls-2" d="M1619.22,21.24H383.34c-73.77,0-134.13,60.38-134.13,134.15V370.86h-.59a2,2,0,0,0-2,2.19v87.08a2,2,0,0,0,2,2.19h.59v145a3.85,3.85,0,0,0-2.56,3.65V776.16a4,4,0,0,0,2.56,3.71v77a3.87,3.87,0,0,0-2.56,3.68v165.17a3.83,3.83,0,0,0,2.56,3.66v815.25c0,73.8,60.36,134.12,134.13,134.12H1619.22c73.76,0,134.13-60.32,134.13-134.12V155.39C1753.35,81.62,1693,21.24,1619.22,21.24Zm44.17,1794.48H339.19V184.35h1324.2Z" transform="translate(0.5 0.5)"></path></svg> 