<?xml version="1.0" encoding="UTF-8"?> <svg xmlns="http://www.w3.org/2000/svg" id="_ëîé_1" data-name="‘ëîé_1" viewBox="0 0 2001 2001"><defs><style>.cls-1{fill:none;stroke:#fff;stroke-miterlimit:10;}.cls-2{fill:#242833;}</style></defs><rect class="cls-1" x="0.5" y="0.5" width="2000" height="2000"></rect><path d="M1045.48,806.33A33.33,33.33,0,0,0,1011.2,808L867.69,903.66h-54.4a26.69,26.69,0,0,0-26.56,24.43H779a46.87,46.87,0,0,0-46.81,46.82v50.18A46.87,46.87,0,0,0,779,1071.91h7.68a26.71,26.71,0,0,0,26.57,24.43h54.4L1011.2,1192a33.39,33.39,0,0,0,51.91-27.78V835.77A33.34,33.34,0,0,0,1045.48,806.33ZM786.61,1045.41H779a20.34,20.34,0,0,1-20.32-20.32V974.91A20.34,20.34,0,0,1,779,954.59h7.57Zm71.85,24.44H813.29a.18.18,0,0,1-.18-.19V930.34a.19.19,0,0,1,.18-.19h45.17Zm178.16,94.38a6.91,6.91,0,0,1-10.73,5.74L885,1076V924l140.94-94a6.91,6.91,0,0,1,10.73,5.74Z" transform="translate(0.5 0.5)"></path><path d="M1198.33,832.09A11.92,11.92,0,0,0,1181.47,849a213.88,213.88,0,0,1,0,302.1,11.93,11.93,0,0,0,16.86,16.87,237.74,237.74,0,0,0,0-335.83Z" transform="translate(0.5 0.5)"></path><path d="M1132.85,897.56A11.92,11.92,0,0,0,1116,914.42a121.17,121.17,0,0,1,0,171.16,11.92,11.92,0,0,0,16.86,16.86,145,145,0,0,0,0-204.88Z" transform="translate(0.5 0.5)"></path><path class="cls-2" d="M997.38,1871.1a90.44,90.44,0,0,0-14-1.16,87.31,87.31,0,0,0-13.94,1.16c-1.88.34-4.51,3-4.83,4.71a87.16,87.16,0,0,0,0,28c.32,1.86,2.95,4.49,4.7,4.79a85.52,85.52,0,0,0,14.07,1.16,83.76,83.76,0,0,0,14-1.16c1.83-.3,4.49-2.93,4.76-4.7a85.36,85.36,0,0,0,0-28C1001.79,1874.07,999.11,1871.44,997.38,1871.1Z" transform="translate(0.5 0.5)"></path><path class="cls-2" d="M1619.22,21.24H383.34c-73.77,0-134.13,60.38-134.13,134.15V370.86h-.59a2,2,0,0,0-2,2.19v87.08a2,2,0,0,0,2,2.19h.59v145a3.85,3.85,0,0,0-2.56,3.65V776.16a4,4,0,0,0,2.56,3.71v77a3.87,3.87,0,0,0-2.56,3.68v165.17a3.83,3.83,0,0,0,2.56,3.66v815.25c0,73.8,60.36,134.12,134.13,134.12H1619.22c73.76,0,134.13-60.32,134.13-134.12V155.39C1753.35,81.62,1693,21.24,1619.22,21.24Zm44.17,1794.48H339.19V184.35h1324.2Z" transform="translate(0.5 0.5)"></path></svg> 