<?xml version="1.0" encoding="UTF-8"?> <svg xmlns="http://www.w3.org/2000/svg" id="_ëîé_1" data-name="‘ëîé_1" viewBox="0 0 2001 2001"><defs><style>.cls-1{fill:none;stroke:#fff;stroke-miterlimit:10;}.cls-2{fill:#242833;}</style></defs><rect class="cls-1" x="0.5" y="0.5" width="2000" height="2000"></rect><path d="M1169.7,1092.9h-59.79a110.84,110.84,0,0,0-38.21-69.29l48.66-77.09c53.25-84.36-7.42-209.82-120.36-209.82-109.94,0-174.21,120.95-120.5,209.59.09.15.15.25,48.78,77.31a110.27,110.27,0,0,0-38.2,69.3H830.3a15.43,15.43,0,0,0,0,30.86h59.78a111.22,111.22,0,0,0,94.49,94.48v29.63a15.43,15.43,0,1,0,30.86,0v-29.63a111.23,111.23,0,0,0,94.49-94.49h59.78a15.43,15.43,0,1,0,0-30.85ZM1000,767.56c84,0,135.38,91.25,94.11,162.75L1000,1079.42,905.9,930.31C864.53,858.65,916.12,767.56,1000,767.56Zm0,420.91A80.16,80.16,0,0,1,945,1050l42,66.52a15.43,15.43,0,0,0,26.1,0l42-66.5c52.35,49.42,17.53,138.41-55,138.41Z" transform="translate(0.5 0.5)"></path><path d="M1061.71,876.63A61.76,61.76,0,1,0,1000,938.39,61.84,61.84,0,0,0,1061.71,876.63ZM1000,907.54a30.91,30.91,0,1,1,30.91-30.91A30.95,30.95,0,0,1,1000,907.54Z" transform="translate(0.5 0.5)"></path><path class="cls-2" d="M997.38,1871.1a90.44,90.44,0,0,0-14-1.16,87.31,87.31,0,0,0-13.94,1.16c-1.88.34-4.51,3-4.83,4.71a87.16,87.16,0,0,0,0,28c.32,1.86,2.95,4.49,4.7,4.79a85.52,85.52,0,0,0,14.07,1.16,83.76,83.76,0,0,0,14-1.16c1.83-.3,4.49-2.93,4.76-4.7a85.36,85.36,0,0,0,0-28C1001.79,1874.07,999.11,1871.44,997.38,1871.1Z" transform="translate(0.5 0.5)"></path><path class="cls-2" d="M1619.22,21.24H383.34c-73.77,0-134.13,60.38-134.13,134.15V370.86h-.59a2,2,0,0,0-2,2.19v87.08a2,2,0,0,0,2,2.19h.59v145a3.85,3.85,0,0,0-2.56,3.65V776.16a4,4,0,0,0,2.56,3.71v77a3.87,3.87,0,0,0-2.56,3.68v165.17a3.83,3.83,0,0,0,2.56,3.66v815.25c0,73.8,60.36,134.12,134.13,134.12H1619.22c73.76,0,134.13-60.32,134.13-134.12V155.39C1753.35,81.62,1693,21.24,1619.22,21.24Zm44.17,1794.48H339.19V184.35h1324.2Z" transform="translate(0.5 0.5)"></path></svg> 