<?xml version="1.0" encoding="UTF-8"?> <svg xmlns="http://www.w3.org/2000/svg" id="_ëîé_1" data-name="‘ëîé_1" viewBox="0 0 2001 2001"><defs><style>.cls-1{fill:none;stroke:#fff;stroke-miterlimit:10;}.cls-2{fill:#242833;}</style></defs><rect class="cls-1" x="0.5" y="0.5" width="2000" height="2000"></rect><g id="_2_PT" data-name=" 2 PT"><path d="M906.32,1336.3H839.06a9.61,9.61,0,0,1-9.61-9.61v-442h19.22v432.38h48V884.7h19.22v442A9.62,9.62,0,0,1,906.32,1336.3Z" transform="translate(0.5 0.5)"></path><path d="M915.93,779H896.71V682.92h-48V779H829.45V673.31a9.61,9.61,0,0,1,9.61-9.61h67.26a9.62,9.62,0,0,1,9.61,9.61Z" transform="translate(0.5 0.5)"></path><path d="M925.53,894.31H819.84A28.82,28.82,0,0,1,791,865.48V798.22a28.82,28.82,0,0,1,28.82-28.82H925.53a28.82,28.82,0,0,1,28.83,28.82v67.26A28.83,28.83,0,0,1,925.53,894.31ZM819.84,788.61a9.61,9.61,0,0,0-9.61,9.61v67.26a9.61,9.61,0,0,0,9.61,9.61H925.53a9.61,9.61,0,0,0,9.61-9.61V798.22a9.61,9.61,0,0,0-9.61-9.61Z" transform="translate(0.5 0.5)"></path><path d="M1160.94,1336.3h-67.26a9.62,9.62,0,0,1-9.61-9.61V1192.17h19.22v124.91h48V1192.17h19.22v134.52A9.61,9.61,0,0,1,1160.94,1336.3Z" transform="translate(0.5 0.5)"></path><path d="M1170.55,1086.48h-19.22V682.92h-48v403.56h-19.22V673.31a9.62,9.62,0,0,1,9.61-9.61h67.26a9.61,9.61,0,0,1,9.61,9.61Z" transform="translate(0.5 0.5)"></path><path d="M1180.16,1201.78H1074.47a28.83,28.83,0,0,1-28.83-28.83h0v-67.26a28.82,28.82,0,0,1,28.83-28.82h105.69a28.82,28.82,0,0,1,28.82,28.82V1173a28.82,28.82,0,0,1-28.82,28.83Zm-105.69-105.7a9.61,9.61,0,0,0-9.61,9.61V1173a9.61,9.61,0,0,0,9.61,9.61h105.69a9.61,9.61,0,0,0,9.61-9.61v-67.26a9.61,9.61,0,0,0-9.61-9.61Z" transform="translate(0.5 0.5)"></path></g><path class="cls-2" d="M997.38,1871.1a90.44,90.44,0,0,0-14-1.16,87.31,87.31,0,0,0-13.94,1.16c-1.88.34-4.51,3-4.83,4.71a87.16,87.16,0,0,0,0,28c.32,1.86,2.95,4.49,4.7,4.79a85.52,85.52,0,0,0,14.07,1.16,83.76,83.76,0,0,0,14-1.16c1.83-.3,4.49-2.93,4.76-4.7a85.36,85.36,0,0,0,0-28C1001.79,1874.07,999.11,1871.44,997.38,1871.1Z" transform="translate(0.5 0.5)"></path><path class="cls-2" d="M1619.22,21.24H383.34c-73.77,0-134.13,60.38-134.13,134.15V370.86h-.59a2,2,0,0,0-2,2.19v87.08a2,2,0,0,0,2,2.19h.59v145a3.85,3.85,0,0,0-2.56,3.65V776.16a4,4,0,0,0,2.56,3.71v77a3.87,3.87,0,0,0-2.56,3.68v165.17a3.83,3.83,0,0,0,2.56,3.66v815.25c0,73.8,60.36,134.12,134.13,134.12H1619.22c73.76,0,134.13-60.32,134.13-134.12V155.39C1753.35,81.62,1693,21.24,1619.22,21.24Zm44.17,1794.48H339.19V184.35h1324.2Z" transform="translate(0.5 0.5)"></path></svg> 