<?xml version="1.0" encoding="UTF-8"?> <svg xmlns="http://www.w3.org/2000/svg" id="_ëîé_1" data-name="‘ëîé_1" viewBox="0 0 2001 2001"><defs><style>.cls-1{fill:none;stroke:#fff;stroke-miterlimit:10;}.cls-2{fill:#242833;}</style></defs><rect class="cls-1" x="0.5" y="0.5" width="2000" height="2000"></rect><g id="surface1"><path d="M910.442,1227.954h35.321v35.32H910.442Z" transform="translate(0.5 0.5)"></path><path d="M1248.321,946.228a97.3,97.3,0,0,1-59-57.318l-4.316-11.286H1116.3V710.662H739.9v598.676H1116.3v-70.066l.494-.256A264.982,264.982,0,0,0,1260.1,1003.628v-53.3Zm-23.3,57.4A228.934,228.934,0,0,1,1116.3,1198.991q-7.577,4.72-15.607,8.866l-1.932.991-1.928-.991q-1.788-.933-3.576-1.882c-4.092-2.211-8.116-4.54-12.035-6.984A228.991,228.991,0,0,1,972.5,1003.628V974.615a132.229,132.229,0,0,0,63.562-61.913h125.393a132.223,132.223,0,0,0,63.561,61.913Zm-212.5-126L1008.2,888.91a97.3,97.3,0,0,1-59,57.318l-11.771,4.1v53.3a264.9,264.9,0,0,0,68.929,178.258H774.983v-357.8h306.235v53.541Zm68.705-131.883V789H774.983V745.741Zm0,528.518H774.983v-57.3h270.27a261.467,261.467,0,0,0,35.476,22.052l.489.256Z" transform="translate(0.5 0.5)"></path><path d="M1116.3,1026.978l-27.569,26.647-7.509-7.085-33.38-31.534-24.089,25.5,57.469,54.28,7.787,7.354,27.291-26.382,70.427-68.061-24.377-25.222Z" transform="translate(0.5 0.5)"></path></g><path class="cls-2" d="M1619.24,21.245H383.36c-73.77,0-134.13,60.38-134.13,134.15v215.47h-.59a2,2,0,0,0-2.009,1.991,1.657,1.657,0,0,0,.009.2v87.08a2,2,0,0,0,1.8,2.181c.066.006.132.009.2.009h.59v145a3.85,3.85,0,0,0-2.56,3.65v165.19a4,4,0,0,0,2.56,3.71v77a3.868,3.868,0,0,0-2.56,3.68v165.17a3.83,3.83,0,0,0,2.56,3.66v815.25c0,73.8,60.36,134.12,134.13,134.12H1619.24c73.76,0,134.13-60.32,134.13-134.12V155.4C1753.37,81.625,1693.02,21.245,1619.24,21.245Zm44.17,1794.48H339.21V184.355h1324.2Z" transform="translate(0.5 0.5)"></path></svg> 