<?xml version="1.0" encoding="UTF-8"?> <svg xmlns="http://www.w3.org/2000/svg" id="_ëîé_1" data-name="‘ëîé_1" viewBox="0 0 2001 2001"><defs><style>.cls-1{fill:none;stroke:#fff;stroke-miterlimit:10;}.cls-2{fill:#242833;}</style></defs><rect class="cls-1" x="0.5" y="0.5" width="2000" height="2000"></rect><path d="M1270.885,825.86H951.628V806.511a19.368,19.368,0,0,0-19.349-19.349H912.93a19.368,19.368,0,0,0-19.349,19.349V825.86H874.232V806.511a19.368,19.368,0,0,0-19.349-19.349H835.534a19.368,19.368,0,0,0-19.349,19.349V825.86H796.836V806.511a19.368,19.368,0,0,0-19.348-19.349H758.139a19.368,19.368,0,0,0-19.349,19.349V825.86h-9.675a29.059,29.059,0,0,0-29.023,29.023v328.932a29.059,29.059,0,0,0,29.023,29.023h541.77a29.059,29.059,0,0,0,29.023-29.023V854.883A29.059,29.059,0,0,0,1270.885,825.86ZM912.93,806.511h19.349l.009,58.047H912.93Zm-77.4,0h19.349l.01,58.047H835.534Zm-77.395,0h19.349l.009,58.047H758.139ZM738.79,1116.093H719.441v-19.348H738.79Zm299.908,77.4H1000V1174.14h38.7Zm96.744,0h-38.7V1174.14h38.7Zm145.117-212.838H1261.21V961.3h19.349Zm0-38.7h-38.7V961.3h-87.07V922.6h-19.349V903.255h106.419V922.6h38.7ZM1000,1077.4V941.953h135.442V1077.4Zm261.21-174.141V883.907h19.349v19.348Zm-19.349-38.7v19.349H1116.093v38.7h-19.348V903.255H1077.4V922.6h-19.349V903.255H1038.7V922.6h-19.349V903.255H1000V922.6H980.651v19.349h-38.7v-38.7H845.209V922.6h77.4v38.7h58.047v19.349h-77.4v-38.7h-108.2a29.024,29.024,0,1,0,0,19.349h88.851V1000h96.744v19.349H961.3V1038.7h19.349v19.349H961.3V1077.4h19.349v19.349H1000v19.348h19.349v-19.348H1038.7v19.348h19.349v-19.348H1077.4v19.348h19.349v-19.348h19.348v19.348h19.349v-19.348h19.349V1077.4h19.349v-19.349h-19.349V1038.7h19.349v-19.349h-19.349v-38.7h87.07V1000h38.7v183.815a9.684,9.684,0,0,1-9.674,9.674H1154.791v-38.7H1077.4v38.7h-19.349v-38.7h-77.4v38.7H729.115a9.684,9.684,0,0,1-9.674-9.674v-48.373H738.79v19.349h77.395v-19.349h19.349v19.349h77.4v-19.349h19.349v-19.349H912.93v-19.348h19.349V1077.4H912.93v-19.349h-77.4V1077.4H816.185v-19.349H738.79V1077.4H719.441V854.883a9.684,9.684,0,0,1,9.674-9.674h9.675v19.349a19.368,19.368,0,0,0,19.349,19.349h19.349a19.368,19.368,0,0,0,19.348-19.349V845.209h19.349v19.349a19.368,19.368,0,0,0,19.349,19.349h19.349a19.368,19.368,0,0,0,19.349-19.349V845.209h19.349v19.349a19.368,19.368,0,0,0,19.349,19.349h19.349a19.368,19.368,0,0,0,19.349-19.349V845.209h319.257a9.684,9.684,0,0,1,9.674,9.674v9.675Zm-464.373,87.07a9.675,9.675,0,1,1-9.675-9.675A9.685,9.685,0,0,1,777.488,951.628Zm-19.349,183.814V1077.4h38.7v58.046Zm58.046-38.7h19.349v19.348H816.185Zm38.7,38.7V1077.4h38.7v58.046Z" transform="translate(0.5 0.5)"></path><path d="M1019.349,1058.047h96.744V961.3h-96.744Zm19.349-77.4h58.047V1038.7H1038.7Z" transform="translate(0.5 0.5)"></path><path d="M806.511,903.255H825.86V922.6H806.511Z" transform="translate(0.5 0.5)"></path><circle cx="1252.036" cy="1164.966" r="9.674"></circle><circle cx="1213.338" cy="1164.966" r="9.674"></circle><circle cx="1252.036" cy="1126.268" r="9.674"></circle><circle cx="1213.338" cy="1126.268" r="9.674"></circle><path class="cls-2" d="M1619.24,21.245H383.36c-73.77,0-134.13,60.38-134.13,134.15v215.47h-.59a2,2,0,0,0-2.009,1.991,1.657,1.657,0,0,0,.009.2v87.08a2,2,0,0,0,1.8,2.181c.066.006.132.009.2.009h.59v145a3.85,3.85,0,0,0-2.56,3.65v165.19a4,4,0,0,0,2.56,3.71v77a3.868,3.868,0,0,0-2.56,3.68v165.17a3.83,3.83,0,0,0,2.56,3.66v815.25c0,73.8,60.36,134.12,134.13,134.12H1619.24c73.76,0,134.13-60.32,134.13-134.12V155.4C1753.37,81.625,1693.02,21.245,1619.24,21.245Zm44.17,1794.48H339.21V184.355h1324.2Z" transform="translate(0.5 0.5)"></path></svg> 