<?xml version="1.0" encoding="UTF-8"?> <svg xmlns="http://www.w3.org/2000/svg" id="_ëîé_1" data-name="‘ëîé_1" viewBox="0 0 2001 2001"><defs><style>.cls-1{fill:none;stroke:#fff;stroke-miterlimit:10;}.cls-2{fill:#242833;}</style></defs><rect class="cls-1" x="0.5" y="0.5" width="2000" height="2000"></rect><path d="M844.45,1157.53H823.16a16.09,16.09,0,0,1-16.09-16.07V912.3a16.09,16.09,0,0,1,16.09-16.07H923.6a13.12,13.12,0,1,0,0-26.23H823.16a42.34,42.34,0,0,0-42.31,42.31v229.16a42.34,42.34,0,0,0,42.31,42.31h21.29a13.13,13.13,0,0,0,0-26.25Z" transform="translate(0.5 0.5)"></path><path d="M1176.84,870h-21.29a13.12,13.12,0,1,0,0,26.23h21.29a16.1,16.1,0,0,1,16.09,16.08v229.16a16.09,16.09,0,0,1-16.09,16.07H1083a13.12,13.12,0,1,0,0,26.23h93.88a42.34,42.34,0,0,0,42.31-42.29V912.3A42.35,42.35,0,0,0,1176.84,870Z" transform="translate(0.5 0.5)"></path><path d="M837.31,861.09A13.12,13.12,0,0,0,850.43,848v-2.79a2.74,2.74,0,0,1,2.72-2.73h21.14a2.74,2.74,0,0,1,2.73,2.73V848a13.12,13.12,0,1,0,26.23,0v-2.79a29,29,0,0,0-29-29H853.16a29,29,0,0,0-29,29V848A13.13,13.13,0,0,0,837.31,861.09Z" transform="translate(0.5 0.5)"></path><path d="M1145.94,1026.89a125.87,125.87,0,0,0-125.71-125.72c-69.29,0-125.69,56.4-125.69,125.72s56.4,125.71,125.69,125.71A125.85,125.85,0,0,0,1145.94,1026.89Zm-125.71,99.46a99.47,99.47,0,1,1,99.49-99.46A99.57,99.57,0,0,1,1020.23,1126.35Z" transform="translate(0.5 0.5)"></path><path d="M1020.23,943.8a83.07,83.07,0,1,0,83.07,83.08A83.18,83.18,0,0,0,1020.23,943.8Zm0,139.93a56.84,56.84,0,1,1,56.83-56.84A56.89,56.89,0,0,1,1020.23,1083.73Z" transform="translate(0.5 0.5)"></path><path class="cls-2" d="M997.38,1871.1a90.44,90.44,0,0,0-14-1.16,87.31,87.31,0,0,0-13.94,1.16c-1.88.34-4.51,3-4.83,4.71a87.16,87.16,0,0,0,0,28c.32,1.86,2.95,4.49,4.7,4.79a85.52,85.52,0,0,0,14.07,1.16,83.76,83.76,0,0,0,14-1.16c1.83-.3,4.49-2.93,4.76-4.7a85.36,85.36,0,0,0,0-28C1001.79,1874.07,999.11,1871.44,997.38,1871.1Z" transform="translate(0.5 0.5)"></path><path class="cls-2" d="M1619.22,21.24H383.34c-73.77,0-134.13,60.38-134.13,134.15V370.86h-.59a2,2,0,0,0-2,2.19v87.08a2,2,0,0,0,2,2.19h.59v145a3.85,3.85,0,0,0-2.56,3.65V776.16a4,4,0,0,0,2.56,3.71v77a3.87,3.87,0,0,0-2.56,3.68v165.17a3.83,3.83,0,0,0,2.56,3.66v815.25c0,73.8,60.36,134.12,134.13,134.12H1619.22c73.76,0,134.13-60.32,134.13-134.12V155.39C1753.35,81.62,1693,21.24,1619.22,21.24Zm44.17,1794.48H339.19V184.35h1324.2Z" transform="translate(0.5 0.5)"></path></svg> 