<?xml version="1.0" encoding="UTF-8"?> <svg xmlns="http://www.w3.org/2000/svg" id="_ëîé_1" data-name="‘ëîé_1" viewBox="0 0 2001 2001"><defs><style>.cls-1{fill:none;stroke:#fff;stroke-miterlimit:10;}.cls-2{fill:#242833;}</style></defs><rect class="cls-1" x="0.5" y="0.5" width="2000" height="2000"></rect><path d="M1086.65,1015.32a9.72,9.72,0,0,0-8.8-5.58h-45.72L1067.8,876a9.74,9.74,0,0,0-16.92-8.7L914.63,1032.75a9.72,9.72,0,0,0,7.51,15.91h45.72L932.2,1182.4a9.73,9.73,0,0,0,16.91,8.71l136.26-165.46A9.74,9.74,0,0,0,1086.65,1015.32ZM962.54,1144.19l27.4-102.75a9.73,9.73,0,0,0-9.41-12.24H942.76l94.7-115L1010.06,1017a9.75,9.75,0,0,0,9.4,12.25h37.78Z" transform="translate(0.5 0.5)"></path><path d="M1058.39,708H941.61a9.74,9.74,0,0,0-9.74,9.73v38.93a9.74,9.74,0,0,0,9.74,9.73h116.78a9.74,9.74,0,0,0,9.74-9.73V717.76A9.74,9.74,0,0,0,1058.39,708ZM1048.66,747H951.34V727.49h97.32Z" transform="translate(0.5 0.5)"></path><path d="M1108.7,747H891.3A37.33,37.33,0,0,0,854,784.24v470.45A37.34,37.34,0,0,0,891.3,1292h217.4a37.33,37.33,0,0,0,37.29-37.28V784.24A37.33,37.33,0,0,0,1108.7,747Zm17.81,507.73a17.84,17.84,0,0,1-17.82,17.82H891.29a17.84,17.84,0,0,1-17.82-17.82V784.24a17.84,17.84,0,0,1,17.82-17.82h217.4a17.84,17.84,0,0,1,17.82,17.82Z" transform="translate(0.5 0.5)"></path><path class="cls-2" d="M997.38,1871.1a90.44,90.44,0,0,0-14-1.16,87.31,87.31,0,0,0-13.94,1.16c-1.88.34-4.51,3-4.83,4.71a87.16,87.16,0,0,0,0,28c.32,1.86,2.95,4.49,4.7,4.79a85.52,85.52,0,0,0,14.07,1.16,83.76,83.76,0,0,0,14-1.16c1.83-.3,4.49-2.93,4.76-4.7a85.36,85.36,0,0,0,0-28C1001.79,1874.07,999.11,1871.44,997.38,1871.1Z" transform="translate(0.5 0.5)"></path><path class="cls-2" d="M1619.22,21.24H383.34c-73.77,0-134.13,60.38-134.13,134.15V370.86h-.59a2,2,0,0,0-2,2.19v87.08a2,2,0,0,0,2,2.19h.59v145a3.85,3.85,0,0,0-2.56,3.65V776.16a4,4,0,0,0,2.56,3.71v77a3.87,3.87,0,0,0-2.56,3.68v165.17a3.83,3.83,0,0,0,2.56,3.66v815.25c0,73.8,60.36,134.12,134.13,134.12H1619.22c73.76,0,134.13-60.32,134.13-134.12V155.39C1753.35,81.62,1693,21.24,1619.22,21.24Zm44.17,1794.48H339.19V184.35h1324.2Z" transform="translate(0.5 0.5)"></path></svg> 